<?xml version="1.0" encoding="iso-8859-1"?>
<!-- Generator: Adobe Illustrator 19.0.0, SVG Export Plug-In . SVG Version: 6.00 Build 0)  -->
<svg xmlns="http://www.w3.org/2000/svg" xmlns:xlink="http://www.w3.org/1999/xlink" version="1.1" id="Layer_1" x="0px" y="0px" viewBox="0 0 512 512" style="enable-background:new 0 0 512 512;" xml:space="preserve" width="512px" height="512px">
<g>
	<g>
		<path d="M393.824,268.289H248.826c-7.573,29.379-34.294,51.148-66.003,51.148h-76.417v-33.391h76.417    c19.167,0,34.759-15.594,34.759-34.759s-15.593-34.759-34.759-34.759h-62.549c-45.887,0-83.22,37.333-83.22,83.221    c0,45.887,37.333,83.22,83.22,83.22h290.943c38.077-21.832,63.728-62.877,63.728-109.915v-38.175    C454.086,255.52,425.42,268.289,393.824,268.289z" fill="#99031F"/>
	</g>
</g>
<g>
	<g>
		<path d="M120.274,416.357L120.274,416.357c-1.05,0-2.097-0.016-3.14-0.043V512h303.757v-95.643H120.274z M309.552,480.853h-83.865    v-33.391h83.865V480.853z" fill="#99031F"/>
	</g>
</g>
<g>
	<g>
		<path d="M348.337,0H189.914C119.991,0,63.305,56.685,63.305,126.609v71.422c16.857-9.479,36.291-14.896,56.969-14.896h62.549    c31.929,0,58.789,22.076,66.146,51.763h144.855c41.158,0,75.32-30.482,81.122-70.054v-38.235C474.946,56.685,418.262,0,348.337,0z    " fill="#99031F"/>
	</g>
</g>
<g>
</g>
<g>
</g>
<g>
</g>
<g>
</g>
<g>
</g>
<g>
</g>
<g>
</g>
<g>
</g>
<g>
</g>
<g>
</g>
<g>
</g>
<g>
</g>
<g>
</g>
<g>
</g>
<g>
</g>
</svg>
