<?xml version="1.0" encoding="iso-8859-1"?>
<!-- Generator: Adobe Illustrator 19.0.0, SVG Export Plug-In . SVG Version: 6.00 Build 0)  -->
<svg version="1.1" id="Layer_1" xmlns="http://www.w3.org/2000/svg" xmlns:xlink="http://www.w3.org/1999/xlink" x="0px" y="0px"
	 viewBox="0 0 512 512" style="enable-background:new 0 0 512 512;" xml:space="preserve">
<path style="fill:#A75A20;" d="M111.49,365.393V512H447.81V365.393H111.49z"/>
<path style="fill:#743C16;" d="M279.775,365.393V512H447.81V365.393H279.775z"/>
<g>
	<path style="fill:#E24B2D;" d="M114.966,405.533h252.511c67.103,0,121.695-54.591,121.695-121.695v-26.325
		c-20.476,13.068-45.16,20.709-71.703,20.709h-160.09c-8.267,32.698-37.928,56.971-73.158,56.971H99.612v-36.971h84.609
		c21.221,0,38.486-17.266,38.486-38.486s-17.264-38.485-38.486-38.485h-69.255c-50.806,0-92.14,41.334-92.14,92.14
		S64.159,405.533,114.966,405.533z"/>
	<path style="fill:#E24B2D;" d="M489.171,121.695C489.171,54.591,434.58,0,367.477,0H192.071
		C124.969,0,70.377,54.591,70.377,121.695v70.527c13.904-5.133,28.925-7.94,44.59-7.94h69.255c35.23,0,64.892,24.272,73.158,56.97
		H417.47c29.077,0,54.999-12.58,71.703-32.105v-87.452H489.171z"/>
</g>
<rect x="229.987" y="438.695" style="fill:#F1C04F;" width="99.328" height="36.975"/>
<rect x="279.773" y="438.695" style="fill:#E88C4A;" width="49.542" height="36.975"/>
<g>
	<path style="fill:#D33218;" d="M417.469,278.222H279.775v127.311h87.702c67.103,0,121.695-54.591,121.695-121.695v-26.325
		C468.696,270.581,444.013,278.222,417.469,278.222z"/>
	<path style="fill:#D33218;" d="M367.477,0h-87.702v241.252h137.695c29.078,0,54.999-12.58,71.703-32.105v-87.452
		C489.171,54.591,434.58,0,367.477,0z"/>
</g>
<g>
</g>
<g>
</g>
<g>
</g>
<g>
</g>
<g>
</g>
<g>
</g>
<g>
</g>
<g>
</g>
<g>
</g>
<g>
</g>
<g>
</g>
<g>
</g>
<g>
</g>
<g>
</g>
<g>
</g>
</svg>
